<?xml version="1.0" encoding="UTF-8"?>
<svg id="Camada_1" data-name="Camada 1" xmlns="http://www.w3.org/2000/svg" viewBox="0 0 1000 963.34">
  <defs>
    <style>
      .cls-1 {
        fill: #fff;
      }

      .cls-2 {
        letter-spacing: 0em;
      }

      .cls-3 {
        fill: #1e2041;
      }

      .cls-4 {
        letter-spacing: -.02em;
      }

      .cls-5 {
        font-size: 276.99px;
      }

      .cls-5, .cls-6 {
        font-family: KrinkesRegularPERSONALUSE, 'Krinkes Regular PERSONAL USE';
      }

      .cls-5, .cls-6, .cls-7 {
        fill: #03434e;
      }

      .cls-8 {
        fill: #0b414e;
      }

      .cls-6 {
        font-size: 190.43px;
      }

      .cls-9 {
        fill: #85c8d0;
      }

      .cls-10 {
        letter-spacing: 0em;
      }

      .cls-11 {
        letter-spacing: -.03em;
      }

      .cls-12 {
        letter-spacing: -.02em;
      }

      .cls-13 {
        letter-spacing: -.04em;
      }

      .cls-14 {
        letter-spacing: 0em;
      }

      .cls-15 {
        font-family: Bahnschrift-SemiBoldSemiCondensed, Bahnschrift;
        font-size: 50.92px;
        font-variation-settings: 'wght' 600, 'wdth' 87;
        font-weight: 600;
      }

      .cls-7 {
        font-family: BalooPaaji2-Medium, 'Baloo Paaji 2';
        font-size: 89.61px;
        font-weight: 500;
      }
    </style>
  </defs>
  <g>
    <circle class="cls-1" cx="518.33" cy="481.67" r="461.3"/>
    <path class="cls-3" d="M518.33,963.34c-65.02,0-128.1-12.74-187.49-37.86-57.36-24.26-108.87-58.99-153.1-103.22-44.23-44.23-78.96-95.74-103.22-153.1-25.12-59.4-37.86-122.48-37.86-187.49s12.74-128.1,37.86-187.49c24.26-57.36,58.99-108.87,103.22-153.1,44.23-44.23,95.74-78.96,153.1-103.22C390.23,12.74,453.31,0,518.33,0s128.1,12.74,187.49,37.86c57.36,24.26,108.87,58.99,153.1,103.22,44.23,44.23,78.96,95.74,103.22,153.1,25.12,59.4,37.86,122.48,37.86,187.49s-12.74,128.1-37.86,187.49c-24.26,57.36-58.99,108.87-103.22,153.1-44.23,44.23-95.74,78.96-153.1,103.22-59.4,25.12-122.48,37.86-187.49,37.86ZM518.33,40.73c-243.13,0-440.94,197.8-440.94,440.94s197.8,440.94,440.94,440.94,440.94-197.8,440.94-440.94S761.46,40.73,518.33,40.73Z"/>
  </g>
  <path class="cls-8" d="M488.8,553.97s136.57-62.77,226.07-68.23c83.5-5.09,140.53,43.79,150.71,56.01,10.18,12.22,18.33,35.64,6.11,59.06-12.22,23.42-46.85,38.7-129.84,54.99,0,0,54.49-31.57,65.69-44.81,11.2-13.24,26.48-32.59-20.37-64.15-46.84-31.57-147.41-25.46-179.61-20.37s-118.76,27.49-118.76,27.49Z"/>
  <text class="cls-7" transform="translate(281.13 169.54)"><tspan x="0" y="0">D</tspan><tspan class="cls-10" x="58.79" y="0">E</tspan><tspan x="106.55" y="0">SPO</tspan><tspan class="cls-12" x="267.31" y="0">R</tspan><tspan class="cls-11" x="319.2" y="0">T</tspan><tspan x="364.45" y="0">OS</tspan></text>
  <text class="cls-6" transform="translate(208.12 338.03)"><tspan x="0" y="0">NÁUTICOS</tspan></text>
  <text class="cls-5" transform="translate(295.42 751.47)"><tspan x="0" y="0">alvor</tspan></text>
  <text class="cls-15" transform="translate(302.77 838.85)"><tspan class="cls-4" x="0" y="0">P</tspan><tspan x="25.73" y="0">raia dos </tspan><tspan class="cls-13" x="196.75" y="0">T</tspan><tspan class="cls-2" x="215.8" y="0">r</tspan><tspan class="cls-14" x="234.12" y="0">ês Irmãos</tspan></text>
  <path class="cls-9" d="M849.26,521.35c-1.6-1.41-59.3-51.73-149.66-39.68-10,1.33-20.7,3.15-31.95,5.41h-.01c-68.01,13.65-155.48,43.43-223.65,80.13-45.95,24.74-86,46.78-124.99,62.68-32.24,13.14-63.75,22.06-97.25,24.81-7.01.58-14.1.89-21.31.91-2.64.13-5.3.2-7.97.2-63.19,0-115.44-25.51-149.47-65.91-.07-.08-.14-.16-.2-.24-14.8-17.93-26.32-38.66-33.67-61.27-.16-.49-.32-.98-.47-1.47C3.22,509.42.24,490.76.01,471.36c-.01-.3-.01-.6-.01-.9v-.51c.23-88.31,61.56-162.25,143.94-181.8-3.63,3.8-6.9,8.1-9.83,12.89-15.13,20.5-24.13,46.24-24.13,74.21,0,66.88,51.52,121.1,115.07,121.1,56.77,0,103.93-43.26,113.35-100.16,7.19,19.33,19.25,36.09,34.59,48.6,18.35,14.99,41.4,23.91,66.42,23.91,47.15,0,87.26-31.66,102.2-75.88,20.09,32.05,54.61,53.2,93.83,53.2,3.56,0,7.09-.17,10.57-.53h.01s.02.01.03,0c34.39.1,69.37-2.77,105.73,7.64,25.88,7.4,49.56,21,69.4,39.19,9.57,8.77,21,19.88,27.82,28.7.09.11.17.22.25.34Z"/>
</svg>