<?xml version="1.0" encoding="UTF-8"?>
<svg id="Camada_1" data-name="Camada 1" xmlns="http://www.w3.org/2000/svg" viewBox="0 0 1000 963.34">
  <defs>
    <style>
      .cls-1, .cls-2 {
        fill: #fff;
      }

      .cls-2 {
        opacity: 0;
      }
    </style>
  </defs>
  <path class="cls-2" d="M517.82-.51C251.52-.51,35.64,215.37,35.64,481.67s215.88,482.18,482.18,482.18,482.18-215.88,482.18-482.18S784.12-.51,517.82-.51ZM517.82,914.97c-239.3,0-433.3-193.99-433.3-433.3S278.52,48.37,517.82,48.37s433.3,193.99,433.3,433.3-193.99,433.3-433.3,433.3Z"/>
  <path class="cls-1" d="M821.18,491.81c-19.84-18.19-43.52-31.78-69.39-39.19-43.36-12.4-84.7-7.39-125.52-8.12-57.03-1.02-81.47-65.17-81.47-65.17,0,0-21.38,16.29-56.01,46.84-34.62,30.55-67.21,45.82-95.41,42.62-22.49-2.56-44.46-49.21-52.43-67.99-1-2.61-2.04-5.19-3.14-7.74-29.37,53.67-57.77,84.03-104.62,94.21-73.46,15.97-115.38-46.4-116.09-104.89-.61-49.65,10.87-82.02,32.58-100.1C65.36,294.72,0,373.32,0,468.43c0,103.76,78.41,186.86,192.46,186.86,2.68,0,5.34-.08,7.97-.21h0c83.33-.19,151.68-38.91,243.56-88.39,79.43-42.77,185.09-76.14,255.6-85.54,91.65-12.22,149.69,39.71,149.69,39.71-6.79-8.88-18.4-20.17-28.1-29.06Z"/>
  <path class="cls-1" d="M821.18,491.81c-19.84-18.19-43.52-31.78-69.39-39.19-43.36-12.4-84.7-7.39-125.52-8.12-57.03-1.02-81.47-65.17-81.47-65.17,0,0-21.38,16.29-56.01,46.84-34.62,30.55-67.21,45.82-95.41,42.62-22.49-2.56-44.46-49.21-52.43-67.99-1-2.61-2.04-5.19-3.14-7.74-29.37,53.67-57.77,84.03-104.62,94.21-73.46,15.97-115.38-46.4-116.09-104.89-.61-49.65,10.87-82.02,32.58-100.1C65.36,294.72,0,373.32,0,468.43c0,103.76,78.41,186.86,192.46,186.86,2.68,0,5.34-.08,7.97-.21h0c83.33-.19,151.68-38.91,243.56-88.39,79.43-42.77,185.09-76.14,255.6-85.54,91.65-12.22,149.69,39.71,149.69,39.71-6.79-8.88-18.4-20.17-28.1-29.06Z"/>
  <path class="cls-1" d="M488.8,553.46s136.57-62.77,226.07-68.23c83.5-5.09,140.53,43.79,150.71,56.01,10.18,12.22,18.33,35.64,6.11,59.06-12.22,23.42-46.85,38.7-129.84,54.99,0,0,54.49-31.57,65.69-44.81,11.2-13.24,26.48-32.59-20.37-64.15-46.84-31.57-147.41-25.46-179.61-20.37-32.2,5.09-118.76,27.49-118.76,27.49Z"/>
  <g>
    <path class="cls-1" d="M335.52,141.34c0,4.84-.69,9.07-2.06,12.68-1.37,3.62-3.33,6.62-5.87,9.01-2.54,2.39-5.6,4.17-9.19,5.33-3.58,1.17-7.56,1.75-11.92,1.75-1.91,0-4.15-.09-6.72-.27-2.57-.18-4.96-.63-7.17-1.34-2.75-.9-4.12-2.51-4.12-4.84v-44.9c0-1.01.28-1.81.85-2.37.57-.57,1.36-1,2.37-1.3,2.09-.66,4.36-1.09,6.81-1.3,2.45-.21,4.84-.31,7.17-.31,4.42,0,8.47.57,12.14,1.7,3.67,1.14,6.82,2.87,9.45,5.2,2.63,2.33,4.66,5.24,6.09,8.74,1.43,3.5,2.15,7.57,2.15,12.23ZM325.67,141.43c0-3.52-.51-6.56-1.52-9.1-1.02-2.54-2.42-4.61-4.21-6.23s-3.88-2.81-6.27-3.58c-2.39-.78-4.96-1.17-7.71-1.17-3.17,0-5.8.21-7.89.63v39.52c1.19.3,2.52.49,3.99.58,1.46.09,2.94.13,4.44.13,6.21,0,10.96-1.75,14.25-5.24,3.28-3.5,4.93-8.68,4.93-15.55Z"/>
    <path class="cls-1" d="M348.69,167.68c-.96-.96-1.43-2.21-1.43-3.76v-44.18c0-1.55.48-2.79,1.43-3.72.95-.93,2.21-1.39,3.77-1.39h29.66c.3.36.55.87.76,1.52.21.66.31,1.37.31,2.15,0,1.31-.31,2.33-.94,3.05-.63.72-1.48,1.08-2.55,1.08h-22.94v14.88h22.67c.3.36.55.87.76,1.52.21.66.31,1.37.31,2.15,0,1.37-.31,2.39-.94,3.05-.63.66-1.48.99-2.55.99h-20.25v16.31h25.81c.24.36.48.87.72,1.52.24.66.36,1.37.36,2.15,0,1.37-.31,2.41-.94,3.09-.63.69-1.48,1.03-2.55,1.03h-27.69c-1.56,0-2.81-.48-3.77-1.43Z"/>
    <path class="cls-1" d="M410.62,162.4c3.76,0,6.54-.78,8.33-2.33,1.79-1.55,2.69-3.55,2.69-6,0-2.15-.69-3.88-2.06-5.2-1.38-1.31-3.56-2.42-6.54-3.32l-6.72-2.06c-2.09-.66-3.99-1.42-5.69-2.29-1.7-.87-3.15-1.88-4.35-3.05-1.2-1.17-2.11-2.54-2.73-4.12-.63-1.58-.94-3.42-.94-5.51,0-4.72,1.75-8.44,5.24-11.16,3.49-2.72,8.23-4.08,14.2-4.08,2.45,0,4.72.19,6.81.58,2.09.39,3.9.93,5.42,1.61,1.52.69,2.72,1.49,3.58,2.42.87.93,1.3,1.93,1.3,3,0,1.02-.26,1.9-.76,2.64-.51.75-1.12,1.36-1.84,1.84-1.49-1.13-3.45-2.11-5.87-2.91-2.42-.81-5.09-1.21-8.02-1.21-3.29,0-5.82.66-7.62,1.97-1.79,1.31-2.69,3.08-2.69,5.29,0,1.79.63,3.24,1.88,4.35,1.25,1.11,3.32,2.08,6.18,2.91l5.2,1.52c5.02,1.49,8.92,3.54,11.69,6.14,2.78,2.6,4.17,6.14,4.17,10.62,0,2.39-.46,4.59-1.39,6.59-.93,2-2.26,3.72-3.99,5.15-1.73,1.43-3.9,2.54-6.5,3.32s-5.54,1.17-8.83,1.17c-2.75,0-5.26-.24-7.53-.72-2.27-.48-4.23-1.1-5.87-1.88-1.64-.78-2.91-1.67-3.81-2.69-.9-1.02-1.34-2.09-1.34-3.23,0-1.19.36-2.21,1.08-3.05.72-.84,1.55-1.46,2.51-1.88,1.43,1.31,3.39,2.57,5.87,3.76,2.48,1.2,5.45,1.79,8.92,1.79Z"/>
    <path class="cls-1" d="M452.38,150.3v18.55c-.48.18-1.11.34-1.88.49-.78.15-1.64.22-2.6.22-1.85,0-3.18-.34-3.99-1.03-.81-.69-1.21-1.84-1.21-3.45v-46.24c0-1.02.28-1.81.85-2.37.57-.57,1.36-1,2.37-1.3,1.85-.66,4.06-1.1,6.63-1.34,2.57-.24,4.99-.36,7.26-.36,7.76,0,13.52,1.64,17.25,4.93,3.73,3.29,5.6,7.74,5.6,13.35s-1.87,10.11-5.6,13.49c-3.73,3.38-9.31,5.06-16.71,5.06h-7.98ZM459.72,142.5c4.12,0,7.36-.9,9.72-2.69,2.36-1.79,3.54-4.48,3.54-8.07s-1.12-6.21-3.36-7.89c-2.24-1.67-5.45-2.51-9.63-2.51-1.38,0-2.73.06-4.08.18-1.34.12-2.55.27-3.63.45v20.52h7.44Z"/>
    <path class="cls-1" d="M544.14,141.78c0,4.66-.67,8.77-2.02,12.32-1.34,3.56-3.21,6.53-5.6,8.92-2.39,2.39-5.2,4.2-8.42,5.42-3.23,1.22-6.75,1.84-10.57,1.84s-7.36-.61-10.62-1.84c-3.26-1.22-6.06-3.03-8.42-5.42-2.36-2.39-4.21-5.36-5.56-8.92-1.34-3.55-2.02-7.66-2.02-12.32s.69-8.75,2.06-12.28c1.37-3.52,3.26-6.5,5.65-8.92,2.39-2.42,5.21-4.24,8.47-5.47,3.25-1.22,6.73-1.84,10.44-1.84s7.26.61,10.48,1.84c3.23,1.23,6.03,3.05,8.42,5.47,2.39,2.42,4.27,5.39,5.65,8.92,1.37,3.53,2.06,7.62,2.06,12.28ZM534.37,141.78c0-6.69-1.52-11.78-4.57-15.28-3.05-3.5-7.14-5.24-12.28-5.24s-9.07,1.76-12.14,5.29c-3.08,3.53-4.62,8.6-4.62,15.23s1.52,11.8,4.57,15.32c3.05,3.53,7.11,5.29,12.19,5.29s9.23-1.76,12.28-5.29c3.05-3.52,4.57-8.63,4.57-15.32Z"/>
    <path class="cls-1" d="M565.65,168.85c-.48.18-1.11.34-1.88.49-.78.15-1.64.22-2.6.22-1.85,0-3.18-.34-3.99-1.03-.81-.69-1.21-1.84-1.21-3.45v-46.24c0-1.02.28-1.81.85-2.37.57-.57,1.36-1,2.37-1.3,1.85-.66,4.06-1.1,6.63-1.34,2.57-.24,5.14-.36,7.71-.36,7.77,0,13.55,1.57,17.34,4.7,3.79,3.14,5.69,7.54,5.69,13.22,0,3.94-1.03,7.3-3.09,10.08-2.06,2.78-5,4.85-8.83,6.23,1.43,1.79,2.84,3.57,4.21,5.33,1.37,1.76,2.67,3.44,3.9,5.02,1.22,1.58,2.33,3.02,3.32,4.3.99,1.29,1.78,2.35,2.37,3.18-.3,1.38-.96,2.42-1.97,3.14-1.02.72-2.12,1.08-3.32,1.08-1.43,0-2.57-.34-3.41-1.03-.84-.69-1.67-1.63-2.51-2.82l-11.56-16.67h-10.04v19.63ZM574.25,141.52c3.88,0,6.96-.84,9.23-2.51,2.27-1.67,3.41-4.21,3.41-7.62s-1.15-5.85-3.45-7.53c-2.3-1.67-5.69-2.51-10.17-2.51-1.38,0-2.73.06-4.08.18-1.34.12-2.55.27-3.63.45v19.54h8.69Z"/>
    <path class="cls-1" d="M629,122.52v46.33c-.42.18-1.03.34-1.84.49-.81.15-1.66.22-2.55.22-1.85,0-3.17-.34-3.94-1.03-.78-.69-1.16-1.84-1.16-3.45v-42.57h-15.86c-.3-.42-.55-.96-.76-1.61-.21-.66-.31-1.4-.31-2.24,0-1.31.31-2.31.94-3,.63-.69,1.48-1.03,2.55-1.03h38.98c.24.36.46.87.67,1.52.21.66.31,1.37.31,2.15,0,2.81-1.17,4.21-3.49,4.21h-13.53Z"/>
    <path class="cls-1" d="M703.47,141.78c0,4.66-.67,8.77-2.02,12.32-1.34,3.56-3.21,6.53-5.6,8.92-2.39,2.39-5.2,4.2-8.42,5.42-3.23,1.22-6.75,1.84-10.57,1.84s-7.36-.61-10.62-1.84c-3.26-1.22-6.06-3.03-8.42-5.42-2.36-2.39-4.21-5.36-5.56-8.92-1.34-3.55-2.02-7.66-2.02-12.32s.69-8.75,2.06-12.28c1.37-3.52,3.26-6.5,5.65-8.92,2.39-2.42,5.21-4.24,8.47-5.47,3.25-1.22,6.73-1.84,10.44-1.84s7.26.61,10.48,1.84c3.23,1.23,6.03,3.05,8.42,5.47,2.39,2.42,4.27,5.39,5.65,8.92,1.37,3.53,2.06,7.62,2.06,12.28ZM693.7,141.78c0-6.69-1.52-11.78-4.57-15.28-3.05-3.5-7.14-5.24-12.28-5.24s-9.07,1.76-12.14,5.29c-3.08,3.53-4.62,8.6-4.62,15.23s1.52,11.8,4.57,15.32c3.05,3.53,7.11,5.29,12.19,5.29s9.23-1.76,12.28-5.29c3.05-3.52,4.57-8.63,4.57-15.32Z"/>
    <path class="cls-1" d="M730.8,162.4c3.76,0,6.54-.78,8.33-2.33,1.79-1.55,2.69-3.55,2.69-6,0-2.15-.69-3.88-2.06-5.2-1.38-1.31-3.56-2.42-6.54-3.32l-6.72-2.06c-2.09-.66-3.99-1.42-5.69-2.29-1.7-.87-3.15-1.88-4.35-3.05-1.2-1.17-2.11-2.54-2.73-4.12-.63-1.58-.94-3.42-.94-5.51,0-4.72,1.75-8.44,5.24-11.16,3.49-2.72,8.23-4.08,14.2-4.08,2.45,0,4.72.19,6.81.58,2.09.39,3.9.93,5.42,1.61,1.52.69,2.72,1.49,3.58,2.42.87.93,1.3,1.93,1.3,3,0,1.02-.26,1.9-.76,2.64-.51.75-1.12,1.36-1.84,1.84-1.49-1.13-3.45-2.11-5.87-2.91s-5.09-1.21-8.02-1.21c-3.29,0-5.82.66-7.62,1.97-1.79,1.31-2.69,3.08-2.69,5.29,0,1.79.63,3.24,1.88,4.35,1.25,1.11,3.32,2.08,6.18,2.91l5.2,1.52c5.02,1.49,8.92,3.54,11.69,6.14,2.78,2.6,4.17,6.14,4.17,10.62,0,2.39-.46,4.59-1.39,6.59-.93,2-2.26,3.72-3.99,5.15-1.73,1.43-3.9,2.54-6.5,3.32-2.6.78-5.54,1.17-8.83,1.17-2.75,0-5.26-.24-7.53-.72-2.27-.48-4.23-1.1-5.87-1.88-1.64-.78-2.91-1.67-3.81-2.69-.9-1.02-1.34-2.09-1.34-3.23,0-1.19.36-2.21,1.08-3.05.72-.84,1.55-1.46,2.51-1.88,1.43,1.31,3.39,2.57,5.87,3.76,2.48,1.2,5.45,1.79,8.92,1.79Z"/>
  </g>
  <g>
    <path class="cls-1" d="M308.67,256.78c-.64,1.52-1.56,3.59-2.76,6.19-1.21,2.6-2.54,5.56-4,8.85-1.46,3.3-3.05,6.83-4.76,10.57-1.71,3.75-3.4,7.46-5.05,11.14-3.94,8.76-8.13,18.16-12.57,28.18-1.27,3.81-1.3,6.44-.09,7.9,1.2,1.46,3.84,1.68,7.9.67l-2.86,7.43c-1.14.38-2.48.7-4,.95-1.4.25-3.02.44-4.86.57-1.84.12-3.9.19-6.19.19-7.24,0-12.73-2-16.47-6-3.75-4-5.94-10.25-6.57-18.76l-3.43-45.13c-2.03,5.33-3.97,10.73-5.81,16.19-1.84,5.46-3.46,10.57-4.86,15.33-1.4,4.76-2.54,8.98-3.43,12.66-.89,3.68-1.46,6.35-1.71,8-.51,3.81-.35,6.47.48,8,.82,1.52,3.27,1.78,7.33.76l-2.86,7.43c-1.02.25-2.09.51-3.24.76-1.02.25-2.13.44-3.33.57-1.21.12-2.45.19-3.71.19-5.97,0-9.97-1.75-12-5.24-2.03-3.49-1.78-8.16.76-14,.63-1.4,1.55-3.43,2.76-6.09,1.2-2.67,2.54-5.65,4-8.95,1.46-3.3,3.05-6.82,4.76-10.57,1.71-3.74,3.39-7.46,5.05-11.14,3.93-8.63,8.12-17.96,12.57-27.99.25-.89.44-1.68.57-2.38.12-.7.25-1.36.38-2-1.65-2.41-4.19-3.62-7.62-3.62h-1.9v-8.19c.89-.25,1.84-.51,2.86-.76.89-.25,1.9-.44,3.05-.57,1.14-.13,2.41-.19,3.81-.19,7.24,0,12.69,2,16.38,6,3.68,4,5.84,10.25,6.47,18.76.12,1.4.29,3.71.48,6.95s.44,6.89.76,10.95c.32,4.06.63,8.35.95,12.85.32,4.51.63,8.7.95,12.57.32,3.87.57,7.21.76,10,.19,2.79.29,4.51.29,5.14.25,1.9.7,3.43,1.33,4.57l21.14-70.27c1.27-3.81,1.3-6.44.09-7.9-1.21-1.46-3.84-1.68-7.9-.67l2.86-7.43c1.01-.25,2.09-.51,3.24-.76,1.01-.25,2.09-.44,3.24-.57,1.14-.13,2.41-.19,3.81-.19,5.97,0,10.25,1.71,12.85,5.14,2.6,3.43,2.63,8.06.09,13.9Z"/>
    <path class="cls-1" d="M395.12,317.53c-1.02,3.05-2.6,5.87-4.76,8.47-2.16,2.6-4.6,4.92-7.33,6.95-2.73,2.03-5.62,3.62-8.66,4.76-3.05,1.14-6.09,1.71-9.14,1.71-6.22,0-10.7-2.06-13.43-6.19-2.73-4.12-2.7-10.19.09-18.19l3.05-8.19h-24.18l-6.47,14.09c-1.4,3.43-1.71,5.75-.95,6.95.76,1.21,2.6,1.81,5.52,1.81h1.71l-6.09,8.19c-1.4.25-2.79.51-4.19.76-1.27.25-2.57.44-3.9.57-1.33.12-2.64.19-3.9.19-7.24,0-11.23-2-12-6-.76-4,1.71-10.25,7.43-18.76,1.27-1.9,2.98-4.48,5.14-7.71,2.16-3.24,4.35-6.5,6.57-9.81,2.22-3.3,4.28-6.35,6.19-9.14,1.9-2.79,3.24-4.76,4-5.9,4.95-6.86,9.36-13.01,13.23-18.47,3.87-5.46,7.62-10.09,11.24-13.9,3.62-3.81,7.36-6.73,11.23-8.76,3.87-2.03,8.22-3.05,13.04-3.05,3.05,0,5.74.51,8.09,1.52,2.35,1.02,4.16,2.54,5.43,4.57,1.27,2.03,1.97,4.57,2.09,7.62.12,3.05-.51,6.54-1.9,10.47l-19.42,55.41c-.89,2.41-.67,4.16.67,5.24,1.33,1.08,3.08,1.4,5.24.95,2.16-.44,4.48-1.62,6.95-3.52,2.48-1.9,4.41-4.57,5.81-8l3.62,5.33ZM358.18,297.15l13.33-37.51c1.14-3.3,1.52-5.87,1.14-7.71-.38-1.84-1.33-2.73-2.86-2.67-1.52.07-3.59,1.17-6.19,3.33-2.6,2.16-5.49,5.52-8.66,10.09-3.3,4.83-6.64,10.32-10,16.47-3.37,6.16-6.51,12.16-9.43,18h22.66ZM370.56,222.5l34.09-31.04,11.62,20.19-41.89,18.28-3.81-7.43Z"/>
    <path class="cls-1" d="M442.73,312.77c-2.67,3.81-5.49,7.33-8.47,10.57-2.98,3.24-6,6.03-9.05,8.38-3.05,2.35-6.13,4.22-9.24,5.62-3.11,1.4-6.25,2.09-9.43,2.09-7.36,0-11.93-2-13.71-6-1.78-4-.95-10.25,2.48-18.76.51-1.27,1.4-3.46,2.67-6.57,1.27-3.11,2.73-6.66,4.38-10.66,1.65-4,3.36-8.19,5.14-12.57,1.78-4.38,3.46-8.54,5.05-12.47,1.59-3.93,2.98-7.36,4.19-10.28,1.21-2.92,2.06-4.95,2.57-6.09,1.01-2.54,1.14-4.6.38-6.19-.76-1.59-2.6-2.38-5.52-2.38h-1.9l4-8.19c1.01-.25,2.09-.51,3.24-.76,1.01-.25,2.12-.44,3.33-.57,1.2-.13,2.44-.19,3.71-.19,7.24,0,11.77,2,13.62,6,1.84,4,1.05,10.25-2.38,18.76l-23.99,58.46c-1.14,2.92-1.3,4.83-.48,5.71.82.89,2.35.79,4.57-.29,2.22-1.08,4.98-3.11,8.28-6.09,3.3-2.98,6.86-6.82,10.66-11.52,3.81-4.7,7.71-10.25,11.71-16.66,4-6.41,7.78-13.62,11.33-21.61l5.9-14.47c1.14-2.54,1.33-4.6.57-6.19-.76-1.59-2.6-2.38-5.52-2.38h-1.9l3.81-8.19c1.01-.25,2.09-.51,3.24-.76,1.01-.25,2.12-.44,3.33-.57,1.2-.13,2.51-.19,3.9-.19,7.24,0,11.74,2,13.52,6,1.78,4,.95,10.25-2.47,18.76l-22.28,55.03c-1.02,2.54-.89,4.35.38,5.43,1.27,1.08,2.98,1.4,5.14.95,2.16-.44,4.54-1.65,7.14-3.62,2.6-1.97,4.73-4.67,6.38-8.09l3.24,5.33c-1.27,3.05-3.02,5.87-5.24,8.47-2.22,2.6-4.7,4.92-7.43,6.95-2.73,2.03-5.65,3.62-8.76,4.76-3.11,1.14-6.19,1.71-9.24,1.71s-5.68-.54-7.9-1.62c-2.22-1.08-3.9-2.63-5.05-4.67-1.14-2.03-1.65-4.57-1.52-7.62.12-3.05,1.01-6.54,2.67-10.47l.95-2.29Z"/>
    <path class="cls-1" d="M565.17,253.93c-2.67,1.65-5.14,2.51-7.43,2.57-2.29.07-4.48-.32-6.57-1.14-2.1-.82-4.16-1.9-6.19-3.24-2.03-1.33-4.13-2.57-6.28-3.71l-29.71,72.55c-1.02,2.67-1.18,4.79-.48,6.38.7,1.59,2.51,2.38,5.43,2.38h1.9l-3.81,8.19c-1.02.25-2.09.51-3.24.76-1.02.25-2.16.44-3.43.57-1.27.12-2.54.19-3.81.19-7.24,0-11.74-2-13.52-6-1.78-4-.95-10.25,2.48-18.76l26.28-64.36,13.14-5.14c-.26,0-.51-.03-.76-.1-.26-.06-.51-.09-.76-.09-3.68-.25-7.46.09-11.33,1.05-3.87.95-7.71,2.32-11.52,4.09-3.81,1.78-7.46,3.94-10.95,6.47-3.49,2.54-6.7,5.21-9.62,8l-3.81-4,15.23-20c6.47-2.67,12.41-4.09,17.8-4.28,5.39-.19,11.33.35,17.8,1.62,2.54.51,5.2.98,8,1.43,2.79.45,5.81.73,9.04.86,3.24.13,6.76.03,10.57-.29,3.81-.32,8-.98,12.57-2l-7.05,16Z"/>
    <path class="cls-1" d="M602.68,246.31h-7.05l-28.75,71.22c-1.27,3.17-1.08,5.27.57,6.28,1.65,1.02,3.9,1.21,6.76.57,2.86-.63,5.93-2,9.24-4.09,3.3-2.09,6.03-4.79,8.19-8.09l3.24,5.33c-1.78,3.3-4.03,6.28-6.76,8.95-2.73,2.67-5.65,4.95-8.76,6.86-3.11,1.9-6.28,3.4-9.52,4.47-3.24,1.08-6.38,1.62-9.43,1.62s-5.81-.54-8.28-1.62c-2.48-1.08-4.38-2.63-5.71-4.67-1.33-2.03-2.03-4.57-2.1-7.62-.07-3.05.73-6.54,2.38-10.47.25-.76.95-2.51,2.09-5.24,1.14-2.73,2.51-6.03,4.09-9.9,1.59-3.87,3.33-8.19,5.24-12.95,1.9-4.76,3.84-9.55,5.81-14.38,1.97-4.82,3.87-9.52,5.71-14.09,1.84-4.57,3.46-8.63,4.86-12.19h-8.19l3.43-8.38h36.37l-3.43,8.38Z"/>
    <path class="cls-1" d="M651.14,326.38c-2.6,2.6-5.59,4.92-8.95,6.95-3.37,2.03-7.17,3.62-11.43,4.76-4.26,1.14-9.11,1.71-14.57,1.71-10.92,0-18.16-4.25-21.71-12.76-3.55-8.5-3.24-20.5.95-35.99,2.29-8.38,5.39-15.87,9.33-22.47,3.93-6.6,8.44-12.15,13.52-16.66,5.08-4.5,10.6-7.97,16.57-10.38,5.97-2.41,12.12-3.62,18.47-3.62,4.44,0,8.09.92,10.95,2.76,2.86,1.84,4.89,4.22,6.09,7.14,1.21,2.92,1.65,6.19,1.33,9.81-.32,3.62-1.43,7.14-3.33,10.57-1.65,3.17-3.37,5.81-5.14,7.9-1.78,2.09-3.52,3.75-5.24,4.95-1.71,1.21-3.27,2.07-4.67,2.57-1.4.51-2.54.76-3.43.76-3.68,0-6.06-1.46-7.14-4.38-1.08-2.92-.79-6.41.86-10.47,1.78-4.7,4.25-8.31,7.43-10.85,3.17-2.54,6.66-3.81,10.47-3.81,1.14,0,1.97.07,2.48.19.38-.89.51-1.84.38-2.86-.13-1.01-.54-1.97-1.24-2.86-.7-.89-1.81-1.62-3.33-2.19s-3.49-.86-5.9-.86c-4.45,0-8.47,1.11-12.09,3.33-3.62,2.22-6.92,5.21-9.9,8.95-2.98,3.75-5.65,8.03-8,12.85-2.35,4.83-4.41,9.84-6.19,15.04-2.03,5.97-3.56,11.55-4.57,16.76-1.02,5.21-1.24,9.71-.67,13.52.57,3.81,2.09,6.79,4.57,8.95,2.48,2.16,6.19,3.24,11.14,3.24,5.71,0,10.85-1.62,15.42-4.86,4.57-3.24,8.25-7.08,11.05-11.52l3.24,5.33c-1.9,3.05-4.16,5.87-6.76,8.47Z"/>
    <path class="cls-1" d="M726.46,237.93c5.2,0,9.74.98,13.62,2.95,3.87,1.97,6.86,4.89,8.95,8.76,2.1,3.87,3.17,8.73,3.24,14.57.06,5.84-1.11,12.57-3.52,20.19-2.29,7.36-5.14,14.41-8.57,21.14-3.43,6.73-7.52,12.63-12.28,17.71-4.76,5.08-10.25,9.11-16.47,12.09-6.22,2.98-13.33,4.48-21.33,4.48-5.59,0-10.35-1.02-14.28-3.05-3.94-2.03-6.95-4.98-9.04-8.85-2.1-3.87-3.11-8.73-3.05-14.57.06-5.84,1.36-12.57,3.9-20.19,2.41-7.11,5.17-13.96,8.28-20.57,3.11-6.6,6.92-12.47,11.43-17.61,4.5-5.14,9.93-9.27,16.28-12.38,6.35-3.11,13.96-4.67,22.85-4.67ZM725.7,288.77c2.03-6.09,3.74-11.77,5.14-17.04,1.4-5.27,2.19-9.9,2.38-13.9.19-4-.32-7.14-1.52-9.43-1.21-2.28-3.4-3.43-6.57-3.43-3.43,0-6.79,1.3-10.09,3.9-3.3,2.6-6.45,5.97-9.43,10.09-2.98,4.13-5.75,8.79-8.28,14-2.54,5.21-4.7,10.41-6.47,15.62-2.03,5.97-3.78,11.55-5.24,16.76-1.46,5.21-2.29,9.74-2.48,13.62-.19,3.87.35,6.92,1.62,9.14,1.27,2.22,3.55,3.33,6.86,3.33,3.68,0,7.2-1.27,10.57-3.81,3.36-2.54,6.47-5.81,9.33-9.81,2.86-4,5.49-8.54,7.9-13.62,2.41-5.08,4.5-10.22,6.28-15.42Z"/>
    <path class="cls-1" d="M814.05,238.5c3.17.64,5.93,1.87,8.28,3.71,2.35,1.84,4.03,4.06,5.05,6.67,1.01,2.6,1.36,5.56,1.05,8.85-.32,3.3-1.56,6.79-3.71,10.47-2.29,4.06-4.95,6.79-8,8.19-3.05,1.4-5.71,1.4-8,0-2.29-1.4-3.59-3.65-3.9-6.76-.32-3.11.41-6.19,2.19-9.24,1.78-2.92,4.09-4.98,6.95-6.19,2.86-1.21,5.43-1.11,7.71.29.12-2.16-.7-4.12-2.48-5.9-1.78-1.78-4.51-2.98-8.19-3.62-4.32-.63-8.38.19-12.19,2.48-3.81,2.29-6.54,5.4-8.19,9.33-1.9,4.32-1.78,8.51.38,12.57,2.16,4.06,5.71,7.68,10.66,10.85,6.73,4.06,11.55,8.95,14.47,14.66,2.92,5.71,2.92,12.32,0,19.8-1.65,3.94-4.03,7.62-7.14,11.04-3.11,3.43-6.76,6.32-10.95,8.66-4.19,2.35-8.76,4.03-13.71,5.05-4.95,1.01-10.03,1.14-15.23.38-3.94-.64-7.27-2.07-10-4.28-2.73-2.22-4.76-4.86-6.09-7.9-1.33-3.05-1.9-6.38-1.71-10,.19-3.62,1.17-7.08,2.95-10.38,1.9-3.68,4.41-6.54,7.52-8.57,3.11-2.03,6.06-2.29,8.85-.76,2.29,1.27,3.59,3.49,3.9,6.66.32,3.17-.41,6.22-2.19,9.14-1.65,2.79-3.78,4.79-6.38,6-2.6,1.21-5.05,1.37-7.33.48-.38,2.41.76,4.86,3.43,7.33,2.67,2.48,6.16,4.16,10.47,5.05,2.16.51,4.48.51,6.95,0,2.48-.51,4.86-1.4,7.14-2.67,2.29-1.27,4.35-2.89,6.19-4.86,1.84-1.97,3.27-4.22,4.29-6.76,1.9-5.08,1.59-9.39-.95-12.95-2.54-3.55-6.85-7.43-12.95-11.62-3.05-2.03-5.59-4.5-7.62-7.43-2.03-2.92-3.46-6.09-4.28-9.52-.83-3.43-1.02-6.92-.57-10.47.44-3.55,1.68-7.05,3.71-10.47,1.9-3.3,4.35-6.22,7.33-8.76,2.98-2.54,6.25-4.57,9.81-6.09,3.55-1.52,7.27-2.51,11.14-2.95,3.87-.44,7.65-.29,11.33.48Z"/>
  </g>
  <g>
    <path class="cls-1" d="M366.89,642.94c7.2,0,12.65,2.59,16.34,7.76.55-1.29.97-2.45,1.25-3.46.28-1.01.6-1.71.97-2.08h30.47c-.55,1.66-1.66,4.53-3.32,8.59-1.66,4.06-3.6,8.73-5.82,13.99-2.22,5.26-4.53,10.8-6.92,16.62-2.4,5.82-4.67,11.31-6.79,16.48-2.12,5.17-3.97,9.65-5.54,13.43-1.57,3.79-2.54,6.23-2.91,7.34-1.48,3.51-1.29,6,.55,7.48,1.84,1.48,4.34,1.94,7.48,1.39,3.14-.55,6.6-2.22,10.39-4.99,3.78-2.77,6.88-6.65,9.28-11.63l4.71,7.76c-1.85,4.43-4.39,8.54-7.62,12.33-3.23,3.79-6.83,7.06-10.8,9.83-3.97,2.77-8.22,4.99-12.74,6.65-4.53,1.66-9,2.49-13.43,2.49-5.73,0-10.39-1.2-13.99-3.6-3.6-2.4-5.86-6-6.79-10.8-5.36,4.43-10.76,7.94-16.2,10.53-5.45,2.58-10.66,3.88-15.65,3.88-6.28,0-11.4-1.43-15.37-4.29-3.97-2.86-6.79-6.79-8.45-11.77-1.66-4.99-2.17-10.85-1.52-17.59.65-6.74,2.63-13.89,5.96-21.47,7.94-18.84,17.82-32.68,29.64-41.55,11.82-8.86,24.1-13.3,36.84-13.3ZM378.52,661.5c-1.66-2.58-4.34-3.88-8.03-3.88s-6.79.69-9.83,2.08c-3.05,1.39-6.09,3.6-9.14,6.65-3.05,3.05-6.14,7.06-9.28,12.05-3.14,4.99-6.47,11.08-9.97,18.28-2.77,5.36-4.94,10.39-6.51,15.1-1.57,4.71-2.45,8.82-2.63,12.33-.19,3.51.42,6.28,1.8,8.31,1.39,2.03,3.64,3.05,6.79,3.05s6.55-.92,10.25-2.77c3.69-1.84,7.38-4.43,11.08-7.76.55-2.4,1.38-4.8,2.49-7.2l22.99-56.23Z"/>
    <path class="cls-1" d="M464.53,733.93c-3.23,3.79-6.83,7.06-10.8,9.83-3.97,2.77-8.22,4.99-12.74,6.65-4.53,1.66-9,2.49-13.43,2.49s-8.27-.74-11.49-2.22c-3.23-1.48-5.68-3.69-7.34-6.65-1.66-2.95-2.4-6.65-2.22-11.08.19-4.43,1.48-9.51,3.88-15.24.55-1.48,1.85-4.57,3.88-9.28,2.03-4.71,4.34-10.25,6.92-16.62,2.58-6.37,5.35-13.16,8.31-20.36,2.95-7.2,5.72-13.99,8.31-20.36,2.58-6.37,4.85-11.86,6.79-16.48,1.94-4.61,3.19-7.57,3.74-8.86,1.66-3.69,1.94-6.69.83-9-1.11-2.31-3.79-3.46-8.03-3.46h-2.77l5.82-11.91c1.48-.18,3.05-.46,4.71-.83,1.48-.37,3.05-.65,4.71-.83,1.66-.18,3.51-.28,5.54-.28,10.53,0,17.08,2.87,19.67,8.59,2.58,5.73,1.29,14.78-3.88,27.14-.55,1.48-1.48,3.79-2.77,6.92-1.29,3.14-2.82,6.88-4.57,11.22-1.76,4.34-3.7,9.05-5.82,14.13-2.12,5.08-4.2,10.11-6.23,15.1-4.8,11.82-10.07,24.84-15.79,39.05-1.48,3.7-1.29,6.28.55,7.76,1.84,1.48,4.34,1.9,7.48,1.25,3.14-.64,6.55-2.35,10.25-5.12,3.69-2.77,6.83-6.65,9.42-11.63l4.71,7.76c-1.85,4.43-4.39,8.54-7.62,12.33Z"/>
    <path class="cls-1" d="M577.39,645.16c-1.11,2.4-2.87,6.23-5.26,11.49-2.4,5.26-4.99,10.85-7.76,16.76-2.77,5.91-5.36,11.45-7.76,16.62-2.4,5.17-4.06,8.77-4.99,10.8-7.76,16.99-16.62,29.92-26.59,38.78-9.97,8.86-22.99,13.3-39.06,13.3-4.43,0-8.31-.74-11.63-2.22-3.32-1.48-5.91-3.69-7.76-6.65-1.84-2.95-2.91-6.65-3.19-11.08-.28-4.43.51-9.51,2.35-15.24.74-2.22,2.03-5.58,3.88-10.11,1.84-4.52,3.78-9.28,5.82-14.26,2.03-4.99,3.92-9.69,5.68-14.13,1.75-4.43,2.91-7.66,3.46-9.69,1.11-3.69,1.25-6.69.42-9-.83-2.31-3.37-3.46-7.62-3.46h-2.77l5.82-11.91c1.48-.37,3.05-.74,4.71-1.11,1.48-.37,3.05-.64,4.71-.83,1.66-.18,3.51-.28,5.54-.28,10.53,0,17.22,3,20.08,9,2.86,6,1.71,14.91-3.46,26.73-7.02,16.25-11.77,28.67-14.26,37.25-2.49,8.59-2.91,14.26-1.25,17.04.74,1.11,1.8,1.9,3.19,2.35,1.38.46,2.86.65,4.43.55,1.57-.09,3.14-.51,4.71-1.25,1.57-.74,3-1.75,4.29-3.05,0-3.32.37-6.51,1.11-9.56.74-3.05,2.22-7.48,4.43-13.3,2.22-5.82,5.54-13.66,9.97-23.54,4.43-9.88,10.43-23.22,18-40.03h30.75Z"/>
    <path class="cls-1" d="M635.84,642.94c6.65,0,12.23,1.43,16.76,4.29,4.52,2.86,7.8,6.79,9.83,11.77,2.03,4.99,2.86,10.8,2.49,17.45-.37,6.65-2.03,13.76-4.99,21.33-3.32,8.68-7.39,16.39-12.19,23.13-4.8,6.74-10.11,12.51-15.93,17.31-5.82,4.8-12.01,8.45-18.56,10.94-6.56,2.49-13.34,3.74-20.36,3.74s-12.46-1.43-16.9-4.29c-4.43-2.86-7.67-6.79-9.7-11.77s-2.81-10.85-2.35-17.59c.46-6.74,2.17-13.89,5.12-21.47,7.02-17.54,16.3-31.07,27.84-40.58,11.54-9.51,24.51-14.26,38.92-14.26ZM628.91,698.2c2.22-5.7,4.02-11.14,5.4-16.29,1.38-5.15,2.26-9.71,2.63-13.66.37-3.96.18-7.13-.55-9.52-.74-2.39-2.22-3.59-4.43-3.59s-4.71,1.2-7.48,3.59c-2.77,2.39-5.59,5.57-8.45,9.52-2.87,3.96-5.68,8.51-8.45,13.66-2.77,5.15-5.26,10.59-7.48,16.29-2.22,5.52-4.06,10.81-5.54,15.88-1.48,5.06-2.35,9.52-2.63,13.39-.28,3.87.04,6.95.97,9.25.92,2.3,2.49,3.45,4.71,3.45s4.66-1.15,7.34-3.45c2.67-2.3,5.4-5.38,8.17-9.25,2.77-3.86,5.54-8.33,8.31-13.39,2.77-5.06,5.26-10.35,7.48-15.88Z"/>
    <path class="cls-1" d="M709.79,622.72c5.35,0,8.86,2.08,10.53,6.23,1.66,4.15,1.29,9.19-1.11,15.1-1.66,4.43-3.7,8.13-6.09,11.08h24.37c-.55,1.66-1.57,4.25-3.05,7.75-1.48,3.51-3.14,7.57-4.99,12.19-1.85,4.62-3.83,9.42-5.95,14.4-2.13,4.99-4.11,9.7-5.96,14.13-1.85,4.43-3.46,8.27-4.85,11.49-1.38,3.23-2.26,5.4-2.63,6.51-1.48,3.51-1.29,6,.55,7.48,1.84,1.48,4.38,1.94,7.62,1.39,3.23-.55,6.69-2.22,10.39-4.99,3.69-2.77,6.74-6.65,9.14-11.63l4.71,7.76c-1.85,4.43-4.39,8.54-7.62,12.33-3.23,3.79-6.83,7.06-10.8,9.83-3.97,2.77-8.22,4.99-12.74,6.65-4.53,1.66-9,2.49-13.43,2.49s-8.27-.74-11.49-2.22c-3.23-1.48-5.63-3.69-7.2-6.65-1.57-2.95-2.26-6.65-2.08-11.08.18-4.43,1.48-9.51,3.88-15.24l22.71-54.84c-3.32,1.66-6.83,2.49-10.53,2.49-5.17,0-8.59-2.08-10.25-6.23-1.66-4.15-1.2-9.18,1.39-15.1,2.58-6.83,6.14-12.09,10.66-15.79,4.52-3.69,9.46-5.54,14.82-5.54Z"/>
  </g>
  <g>
    <path class="cls-1" d="M306.05,838.34v-36.15h5.69v36.15h-5.69ZM308.86,824.32v-5.45h9.07c1.16,0,2.08-.4,2.77-1.19.69-.8,1.03-1.85,1.03-3.16v-2.44c0-1.38-.34-2.46-1.02-3.26-.68-.8-1.61-1.19-2.78-1.19h-9.07v-5.44h9c2.01,0,3.73.38,5.17,1.16s2.56,1.88,3.36,3.33c.8,1.45,1.19,3.16,1.19,5.13v2.98c0,1.96-.4,3.65-1.19,5.08-.8,1.43-1.92,2.53-3.38,3.29-1.46.76-3.17,1.14-5.15,1.14h-9Z"/>
    <path class="cls-1" d="M331.66,838.34v-25.81h5.82v25.81h-5.82ZM344.91,818.42c-.27-.21-.6-.38-.99-.48-.4-.11-.86-.16-1.39-.16-1.59,0-2.83.45-3.7,1.34-.88.9-1.33,2.14-1.34,3.73l-.52-5.82c.76-1.54,1.75-2.75,2.97-3.62,1.22-.87,2.57-1.31,4.06-1.31.55,0,1.05.09,1.52.26.46.17.86.43,1.19.76l-1.79,5.29Z"/>
    <path class="cls-1" d="M357.17,838.71c-2.47,0-4.34-.63-5.61-1.9-1.27-1.27-1.9-3.19-1.9-5.76s.72-4.71,2.18-6.07c1.45-1.36,3.6-2.04,6.45-2.04h4.75l.35,4.57h-5c-1.14,0-2,.29-2.56.88-.56.59-.85,1.47-.85,2.65,0,.98.29,1.71.88,2.2.59.49,1.47.73,2.65.73,1.44,0,2.53-.25,3.26-.75.73-.5,1.09-1.23,1.09-2.21l.5,2.96c-.15,1.06-.51,1.94-1.07,2.64-.56.7-1.28,1.22-2.14,1.57-.86.35-1.86.52-2.98.52ZM362.86,838.34v-17.53c0-1.14-.33-2.03-.98-2.67-.65-.64-1.59-.96-2.8-.96-.86,0-1.63.19-2.31.58-.68.39-1.22.94-1.62,1.65l-4.6-1.64c.53-1.79,1.54-3.18,3.02-4.18,1.48-.99,3.33-1.49,5.53-1.49,2.9,0,5.14.75,6.73,2.25,1.58,1.5,2.37,3.62,2.37,6.35v17.63h-5.35Z"/>
    <path class="cls-1" d="M374.2,807.93v-5.64h5.64v5.64h-5.64ZM374.2,838.34v-25.81h5.64v25.81h-5.64Z"/>
    <path class="cls-1" d="M392.52,838.71c-2.47,0-4.34-.63-5.61-1.9-1.27-1.27-1.9-3.19-1.9-5.76s.72-4.71,2.18-6.07c1.45-1.36,3.6-2.04,6.45-2.04h4.75l.35,4.57h-5c-1.14,0-2,.29-2.56.88-.56.59-.85,1.47-.85,2.65,0,.98.29,1.71.88,2.2.59.49,1.47.73,2.65.73,1.44,0,2.53-.25,3.26-.75.73-.5,1.09-1.23,1.09-2.21l.5,2.96c-.15,1.06-.51,1.94-1.07,2.64-.56.7-1.28,1.22-2.14,1.57-.86.35-1.86.52-2.98.52ZM398.21,838.34v-17.53c0-1.14-.33-2.03-.98-2.67-.65-.64-1.59-.96-2.8-.96-.86,0-1.63.19-2.31.58-.68.39-1.22.94-1.62,1.65l-4.6-1.64c.53-1.79,1.54-3.18,3.02-4.18,1.48-.99,3.33-1.49,5.53-1.49,2.9,0,5.14.75,6.73,2.25,1.58,1.5,2.37,3.62,2.37,6.35v17.63h-5.35Z"/>
    <path class="cls-1" d="M428.17,838.79c-2.27,0-4.02-.79-5.25-2.37-1.23-1.58-1.84-3.83-1.84-6.75v-8.38c0-2.93.61-5.2,1.84-6.8,1.23-1.6,2.95-2.4,5.17-2.4,1.29,0,2.49.41,3.58,1.22,1.09.81,1.97,1.96,2.64,3.43l-.52,4.48c0-.85-.14-1.55-.41-2.13s-.67-1.01-1.18-1.32c-.51-.31-1.14-.46-1.89-.46-1.13,0-2.01.38-2.64,1.13-.63.75-.94,1.81-.94,3.17v7.78c0,1.33.31,2.35.94,3.07.63.72,1.51,1.08,2.64,1.08.75,0,1.38-.15,1.89-.45.51-.3.91-.74,1.18-1.32.27-.58.41-1.28.41-2.09l.35,4.6c-.46,1.34-1.21,2.43-2.24,3.26-1.03.83-2.27,1.24-3.73,1.24ZM433.79,838.34v-36.15h5.69v36.15h-5.69Z"/>
    <path class="cls-1" d="M454.28,838.71c-2.92,0-5.18-.8-6.8-2.41-1.62-1.61-2.42-3.88-2.42-6.81v-8.25c0-2.92.81-5.17,2.42-6.75s3.88-2.37,6.8-2.37,5.2.79,6.81,2.37c1.61,1.58,2.41,3.83,2.41,6.75v8.33c0,2.92-.8,5.17-2.41,6.76-1.61,1.59-3.88,2.39-6.81,2.39ZM454.3,833.34c1.13,0,2-.35,2.61-1.06.61-.7.92-1.68.92-2.92v-7.96c0-1.24-.31-2.2-.92-2.88-.61-.68-1.48-1.02-2.61-1.02s-2.01.34-2.64,1.02c-.63.68-.94,1.64-.94,2.88v7.96c0,1.24.31,2.22.94,2.92.63.7,1.51,1.06,2.64,1.06Z"/>
    <path class="cls-1" d="M476.9,838.71c-2.62,0-4.76-.53-6.43-1.6s-2.77-2.61-3.32-4.61l4.8-2.34c.51,1.11,1.2,1.95,2.06,2.52.86.57,1.88.86,3.06.86,1.28,0,2.26-.25,2.95-.75.69-.5,1.03-1.18,1.03-2.06,0-.81-.26-1.41-.78-1.79-.52-.38-1.21-.67-2.05-.87s-1.76-.39-2.73-.57c-.88-.22-1.76-.46-2.64-.75-.88-.28-1.68-.68-2.4-1.19-.72-.51-1.31-1.21-1.77-2.09-.46-.88-.68-2.02-.68-3.43,0-2.5.78-4.45,2.35-5.83,1.57-1.38,3.75-2.08,6.55-2.08,2.4,0,4.37.48,5.89,1.45,1.52.97,2.58,2.4,3.16,4.29l-4.8,2.29c-.43-.94-1.01-1.66-1.73-2.16-.72-.5-1.57-.75-2.55-.75-1.14,0-2.02.24-2.64.71-.61.47-.92,1.13-.92,1.98,0,.7.24,1.23.71,1.59.47.36,1.09.64,1.85.83.76.19,1.58.37,2.46.53.91.17,1.84.37,2.8.62.95.25,1.83.63,2.62,1.14.8.51,1.43,1.25,1.89,2.21.46.96.7,2.22.7,3.78,0,2.55-.82,4.53-2.47,5.94-1.65,1.41-3.97,2.11-6.97,2.11Z"/>
    <path class="cls-1" d="M499.08,807.63v-5.44h21.93v5.44h-21.93ZM507.21,838.34v-33.17h5.64v33.17h-5.64Z"/>
    <path class="cls-1" d="M521.73,838.34v-25.81h5.82v25.81h-5.82ZM534.98,818.42c-.27-.21-.6-.38-.99-.48-.4-.11-.86-.16-1.39-.16-1.59,0-2.83.45-3.7,1.34s-1.33,2.14-1.34,3.73l-.52-5.82c.76-1.54,1.75-2.75,2.97-3.62,1.22-.87,2.57-1.31,4.06-1.31.55,0,1.05.09,1.52.26s.86.43,1.19.76l-1.79,5.29Z"/>
    <path class="cls-1" d="M549.22,838.71c-3.1,0-5.51-.86-7.22-2.59-1.72-1.72-2.57-4.17-2.57-7.33v-6.29c0-3.3.82-5.85,2.47-7.66,1.65-1.81,3.98-2.71,7-2.71s5.15.97,6.76,2.91c1.61,1.94,2.41,4.68,2.41,8.23v4.38h-14.52v-4.3h9.12l.02-1.59c.02-1.41-.33-2.51-1.04-3.31s-1.63-1.19-2.76-1.19c-1.31,0-2.32.43-3.05,1.29-.72.86-1.08,2.09-1.08,3.68v6.71c0,1.46.38,2.59,1.14,3.39s1.83,1.21,3.21,1.21c.94,0,1.74-.23,2.37-.7.64-.46,1.08-1.12,1.33-1.96l4.95,1.76c-.5,1.99-1.47,3.5-2.92,4.52-1.45,1.03-3.33,1.54-5.63,1.54ZM548.77,797.57l7.56,7.86-3.21,2.96-4.35-4.57-4.35,4.57-3.23-2.96,7.58-7.86Z"/>
    <path class="cls-1" d="M571.37,838.71c-2.62,0-4.76-.53-6.43-1.6s-2.77-2.61-3.32-4.61l4.8-2.34c.51,1.11,1.2,1.95,2.06,2.52s1.88.86,3.06.86c1.28,0,2.26-.25,2.95-.75.69-.5,1.03-1.18,1.03-2.06,0-.81-.26-1.41-.78-1.79-.52-.38-1.21-.67-2.05-.87s-1.76-.39-2.73-.57c-.88-.22-1.76-.46-2.64-.75-.88-.28-1.68-.68-2.4-1.19-.72-.51-1.31-1.21-1.77-2.09-.46-.88-.68-2.02-.68-3.43,0-2.5.78-4.45,2.35-5.83,1.57-1.38,3.75-2.08,6.55-2.08,2.4,0,4.37.48,5.89,1.45,1.52.97,2.58,2.4,3.16,4.29l-4.8,2.29c-.43-.94-1.01-1.66-1.73-2.16s-1.57-.75-2.55-.75c-1.14,0-2.02.24-2.64.71s-.92,1.13-.92,1.98c0,.7.24,1.23.71,1.59.47.36,1.09.64,1.85.83.76.19,1.58.37,2.46.53.91.17,1.84.37,2.8.62.95.25,1.83.63,2.62,1.14.8.51,1.43,1.25,1.89,2.21.46.96.7,2.22.7,3.78,0,2.55-.82,4.53-2.47,5.94-1.65,1.41-3.97,2.11-6.97,2.11Z"/>
    <path class="cls-1" d="M602.77,802.19v36.15h-5.74v-36.15h5.74Z"/>
    <path class="cls-1" d="M608.96,838.34v-25.81h5.82v25.81h-5.82ZM622.22,818.42c-.27-.21-.6-.38-.99-.48-.4-.11-.86-.16-1.39-.16-1.59,0-2.83.45-3.7,1.34s-1.33,2.14-1.34,3.73l-.52-5.82c.76-1.54,1.75-2.75,2.97-3.62,1.22-.87,2.57-1.31,4.06-1.31.55,0,1.05.09,1.52.26s.86.43,1.19.76l-1.79,5.29Z"/>
    <path class="cls-1" d="M627.78,838.34v-25.81h5.72v25.81h-5.72ZM640.71,838.34v-16.68c0-1.36-.31-2.4-.92-3.12s-1.52-1.08-2.71-1.08-2.05.34-2.66,1.01-.92,1.63-.92,2.87l-.52-4.38c.66-1.59,1.55-2.8,2.66-3.62s2.39-1.23,3.83-1.23c2.22,0,3.93.75,5.13,2.25,1.2,1.5,1.8,3.64,1.8,6.43v17.55h-5.69ZM653.64,838.34v-16.68c0-1.36-.32-2.4-.94-3.12s-1.55-1.08-2.76-1.08c-1.14,0-2.02.36-2.62,1.07-.61.71-.91,1.73-.91,3.06l-.85-4.43c.7-1.66,1.63-2.91,2.81-3.77,1.18-.85,2.47-1.28,3.88-1.28,2.27,0,4.02.77,5.26,2.3,1.23,1.53,1.85,3.71,1.85,6.53v17.4h-5.72Z"/>
    <path class="cls-1" d="M672.24,838.71c-2.47,0-4.34-.63-5.61-1.9s-1.9-3.19-1.9-5.76.72-4.71,2.18-6.07c1.45-1.36,3.6-2.04,6.45-2.04h4.75l.35,4.57h-5c-1.14,0-2,.29-2.56.88s-.85,1.47-.85,2.65c0,.98.29,1.71.88,2.2.59.49,1.47.73,2.65.73,1.44,0,2.53-.25,3.26-.75s1.09-1.23,1.09-2.21l.5,2.96c-.15,1.06-.51,1.94-1.07,2.64s-1.28,1.22-2.14,1.57-1.86.52-2.98.52ZM677.93,838.34v-17.53c0-1.14-.33-2.03-.98-2.67-.66-.64-1.59-.96-2.8-.96-.86,0-1.63.19-2.31.58s-1.22.94-1.62,1.65l-4.6-1.64c.53-1.79,1.54-3.18,3.02-4.18,1.48-.99,3.33-1.49,5.53-1.49,2.9,0,5.14.75,6.73,2.25,1.58,1.5,2.37,3.62,2.37,6.35v17.63h-5.35ZM677.78,807.93c-.55,0-1.07-.1-1.57-.3s-1-.46-1.52-.77c-.51-.32-.98-.59-1.4-.82-.42-.23-.85-.35-1.28-.35-.88,0-1.32.43-1.32,1.29v.94h-4.33v-1.37c0-2.04.38-3.56,1.14-4.56s1.91-1.5,3.43-1.5c.63,0,1.21.11,1.73.32.52.22,1.04.49,1.55.82.5.3.93.55,1.31.76s.74.31,1.11.31c.9,0,1.34-.51,1.34-1.52v-.82h4.35v1.27c0,2.1-.37,3.68-1.12,4.72s-1.89,1.57-3.43,1.57Z"/>
    <path class="cls-1" d="M698.07,838.71c-2.92,0-5.18-.8-6.8-2.41-1.62-1.61-2.42-3.88-2.42-6.81v-8.25c0-2.92.81-5.17,2.42-6.75,1.62-1.58,3.88-2.37,6.8-2.37s5.2.79,6.81,2.37,2.41,3.83,2.41,6.75v8.33c0,2.92-.8,5.17-2.41,6.76-1.61,1.59-3.88,2.39-6.81,2.39ZM698.09,833.34c1.13,0,2-.35,2.61-1.06s.92-1.68.92-2.92v-7.96c0-1.24-.31-2.2-.92-2.88-.61-.68-1.48-1.02-2.61-1.02s-2.01.34-2.64,1.02c-.63.68-.94,1.64-.94,2.88v7.96c0,1.24.32,2.22.94,2.92s1.51,1.06,2.64,1.06Z"/>
    <path class="cls-1" d="M720.69,838.71c-2.62,0-4.76-.53-6.43-1.6s-2.77-2.61-3.32-4.61l4.8-2.34c.51,1.11,1.2,1.95,2.06,2.52.86.57,1.88.86,3.06.86,1.28,0,2.26-.25,2.95-.75.69-.5,1.03-1.18,1.03-2.06,0-.81-.26-1.41-.78-1.79-.52-.38-1.21-.67-2.05-.87s-1.76-.39-2.73-.57c-.88-.22-1.76-.46-2.64-.75-.88-.28-1.68-.68-2.4-1.19-.72-.51-1.31-1.21-1.77-2.09-.46-.88-.68-2.02-.68-3.43,0-2.5.78-4.45,2.35-5.83,1.57-1.38,3.75-2.08,6.55-2.08,2.4,0,4.37.48,5.89,1.45,1.52.97,2.58,2.4,3.16,4.29l-4.8,2.29c-.43-.94-1.01-1.66-1.73-2.16s-1.57-.75-2.55-.75c-1.14,0-2.02.24-2.64.71s-.92,1.13-.92,1.98c0,.7.24,1.23.71,1.59.47.36,1.09.64,1.85.83.76.19,1.58.37,2.46.53.91.17,1.84.37,2.8.62.95.25,1.83.63,2.62,1.14.8.51,1.43,1.25,1.89,2.21.46.96.7,2.22.7,3.78,0,2.55-.82,4.53-2.47,5.94-1.65,1.41-3.97,2.11-6.97,2.11Z"/>
  </g>
  <path class="cls-1" d="M517.82-.51C315.75-.51,142.71,123.79,71,300.11c20.82-15.98,44.72-27.54,70.52-33.38C216.19,136.27,356.74,48.37,517.82,48.37c239.3,0,433.3,193.99,433.3,433.3s-193.99,433.3-433.3,433.3c-175.76,0-327.08-104.65-395.05-255.04-25.53-9.25-48.12-22.97-67.07-40.19,59.37,199.02,243.8,344.11,462.12,344.11,266.3,0,482.18-215.88,482.18-482.18S784.12-.51,517.82-.51Z"/>
</svg>